<?xml version="1.0" encoding="utf-8"?>
<!-- Generator: Adobe Illustrator 23.1.1, SVG Export Plug-In . SVG Version: 6.00 Build 0)  -->
<svg version="1.1" id="Layer_1" xmlns="http://www.w3.org/2000/svg" xmlns:xlink="http://www.w3.org/1999/xlink" x="0px" y="0px"
	 viewBox="0 0 153.1 153.3" style="enable-background:new 0 0 153.1 153.3;" xml:space="preserve">
<style type="text/css">
	.st0{fill:#2B363F;}
	.st1{fill:#61758B;}
	.st2{fill:#FFFFFF;}
</style>
<g>
	<g>
		<path class="st0" d="M32.1,39l-8,1.8c-1.7,0.4-2.6,1.9-2.6,2.9l-0.4,44.5c0,1.1,0.9,2.1,2.6,1.8c1.7-0.4,2.7-1.9,2.7-3l0.2-19.7
			l5.3-1.2c8.7-2,14.8-9,14.9-16.7V49C46.9,41.4,40.8,37.1,32.1,39z M41.5,50.7c-0.1,6.3-4.8,10.1-9.6,11.2l-5.3,1.2l0.2-18.5
			l5.3-1.2c4.8-1.1,9.5,0.7,9.5,6.9L41.5,50.7L41.5,50.7z"/>
		<path class="st0" d="M56.4,82.7c1.7-0.4,2.7-1.9,2.7-3l0.4-45.2c0-1.1-0.9-2.1-2.6-1.8c-1.7,0.4-2.6,1.9-2.6,2.9l-0.4,45.2
			C53.8,82,54.7,83.1,56.4,82.7z"/>
		<path class="st0" d="M73.2,78.8c1.7-0.4,2.7-1.9,2.7-3l0.2-19.6c0-4.9-0.3-10.4-0.7-15.8l0.4-0.1l16.7,31.5
			c0.8,1.6,1.9,2.1,3.3,1.8c1.7-0.4,2.6-1.9,2.6-4l0.4-44.1c0-1.1-0.9-2.1-2.6-1.8c-1.7,0.4-2.7,1.9-2.7,3l-0.2,19.8
			c0,4.9,0.3,10.2,0.7,15.6l-0.4,0.1L76.9,30.9c-0.8-1.8-1.9-2.3-3.3-2c-1.7,0.4-2.6,1.9-2.6,4l-0.4,44.1
			C70.6,78.1,71.6,79.2,73.2,78.8z"/>
		<path class="st0" d="M106.9,26.3l9.3-2.1l-0.4,42.6c0,1.1,0.9,2.2,2.6,1.8c1.7-0.4,2.7-1.9,2.7-3l0.4-42.6l9.3-2.1
			c1.4-0.3,2.3-1.5,2.3-2.7c0-1.2-0.9-1.9-2.3-1.6L106.9,22c-1.4,0.3-2.3,1.5-2.3,2.7C104.6,25.9,105.5,26.6,106.9,26.3z"/>
		<path class="st0" d="M32.1,91.3l-8,1.8c-1.7,0.4-2.6,1.9-2.6,2.9l-0.4,44.5c0,1.1,0.9,2.1,2.6,1.8c1.7-0.4,2.7-1.9,2.7-3l0.2-19.7
			l5.3-1.2c8.7-2,14.8-9,14.9-16.7v-0.5C46.9,93.7,40.8,89.4,32.1,91.3z M41.5,103c-0.1,6.3-4.8,10.1-9.6,11.2l-5.3,1.2l0.2-18.5
			l5.3-1.2c4.8-1.1,9.5,0.7,9.5,6.9L41.5,103L41.5,103z"/>
		<path class="st0" d="M108.1,73c-1.7,0.4-2.7,1.9-2.7,3l-0.2,19.8c0,4.9,0.3,10.2,0.7,15.6l-0.4,0.1L88.9,80.1
			c-0.8-1.8-1.9-2.3-3.3-2c-1.7,0.4-2.6,1.9-2.6,4l-0.4,44.1c0,1.1,0.9,2.1,2.6,1.8c1.7-0.4,2.7-1.9,2.7-3l0.2-19.6
			c0-4.9-0.3-10.4-0.7-15.8l0.4-0.1l16.7,31.5c0.8,1.6,1.9,2.1,3.3,1.8c1.7-0.4,2.6-1.9,2.6-4l0.4-44.1
			C110.6,73.7,109.7,72.6,108.1,73z"/>
		<path class="st0" d="M140.7,64.7c-0.5,0.1-1.9,0.6-2.8,2.6l-8.9,21l-8.6-17c-0.8-1.6-2-1.5-2.6-1.3c-2.1,0.5-3,2.6-2.2,4
			l10.8,19.8l-0.2,21.3c0,1.1,0.9,2.1,2.5,1.8c1.7-0.4,2.7-1.9,2.7-2.9l0.2-21.3l11.4-24.8C143.8,65.9,142.9,64.2,140.7,64.7z"/>
		<path class="st0" d="M150.1,32.8l-10,2.3c-2.3,0.5-4.7-0.4-4.6-3.8V31c0-3.1,2.1-4.9,4.3-5.4c2.2-0.5,3.7,0.5,4.1,1.7l0.1,0.4
			c0.2,0.5,0.4,1.4,1.6,1.1c0.9-0.2,1.5-1,1.5-1.6l0-0.2c0-2.1-2.2-5-7.3-3.9c-4.2,1-7.4,4.6-7.4,8.6V32c0,2,1.1,4.7,4.2,5
			c-3.4,2.1-4.7,5.6-4.7,8.4l0,0.3c0,4.7,2.6,7.5,7.8,6.3c4.7-1.1,7.5-4.6,7.5-8.5l0.1-6.9c0-0.2,0-0.4-0.1-0.7l2.9-0.7
			c0.8-0.2,1.3-0.8,1.3-1.6C151.5,33,150.9,32.6,150.1,32.8z M144.2,44.2c0,3.1-2.2,4.9-4.6,5.5c-2.3,0.5-4.6-0.9-4.6-4.8l0-0.2
			c0-4.2,2.6-6.4,5.1-7l4.1-0.9L144.2,44.2z"/>
		<path class="st0" d="M64.5,84.7c-8.5,1.9-13.3,8.1-13.4,14.9l-0.2,26.2c-0.1,6.8,4.7,10.7,13.2,8.8c8.5-1.9,13.3-8.1,13.4-14.8
			l0.2-26.2C77.7,86.8,73,82.8,64.5,84.7z M72.2,120.9c0,5.3-4.1,8.5-8.1,9.5c-4,0.9-8-0.5-8-5.8l0.2-26.1c0-5.3,4.1-8.5,8.1-9.5
			c4-0.9,8,0.5,8,5.8L72.2,120.9z"/>
	</g>
	<g>
		<path class="st1" d="M30.9,38.4l-8,1.8c-1.7,0.4-2.6,1.9-2.6,2.9L20,87.6c0,1.1,0.9,2.1,2.6,1.8c1.7-0.4,2.7-1.9,2.7-3l0.2-19.7
			l5.3-1.2c8.7-2,14.8-9,14.9-16.7v-0.5C45.7,40.7,39.6,36.4,30.9,38.4z M40.4,50c-0.1,6.3-4.8,10.1-9.6,11.2l-5.3,1.2l0.2-18.5
			l5.3-1.2c4.8-1.1,9.5,0.7,9.5,6.9L40.4,50L40.4,50z"/>
		<path class="st1" d="M55.2,82c1.7-0.4,2.7-1.9,2.7-3l0.4-45.2c0-1.1-0.9-2.1-2.6-1.8C54,32.4,53,33.9,53,35l-0.4,45.2
			C52.6,81.3,53.5,82.4,55.2,82z"/>
		<path class="st1" d="M72.1,78.2c1.7-0.4,2.7-1.9,2.7-3l0.2-19.6c0-4.9-0.3-10.4-0.7-15.8l0.4-0.1l16.7,31.5
			c0.8,1.6,1.9,2.1,3.3,1.8c1.7-0.4,2.6-1.9,2.6-4l0.4-44.1c0-1.1-0.9-2.1-2.6-1.8c-1.7,0.4-2.7,1.9-2.7,3l-0.2,19.8
			c0,4.9,0.3,10.2,0.7,15.6l-0.4,0.1L75.8,30.2c-0.8-1.8-1.9-2.3-3.3-2c-1.7,0.4-2.6,1.9-2.6,4l-0.4,44.1
			C69.5,77.5,70.4,78.5,72.1,78.2z"/>
		<path class="st1" d="M105.7,25.6l9.3-2.1l-0.4,42.6c0,1.1,0.9,2.2,2.6,1.8c1.7-0.4,2.7-1.9,2.7-3l0.4-42.6l9.3-2.1
			c1.4-0.3,2.3-1.5,2.3-2.7c0-1.2-0.9-1.9-2.3-1.6l-23.9,5.4c-1.4,0.3-2.3,1.5-2.3,2.7C103.4,25.2,104.4,26,105.7,25.6z"/>
		<path class="st1" d="M30.9,90.6l-8,1.8c-1.7,0.4-2.6,1.9-2.6,2.9L20,139.9c0,1.1,0.9,2.1,2.6,1.8c1.7-0.4,2.7-1.9,2.7-3l0.2-19.7
			l5.3-1.2c8.7-2,14.8-9,14.9-16.7v-0.5C45.7,93,39.6,88.7,30.9,90.6z M40.4,102.3c-0.1,6.3-4.8,10.1-9.6,11.2l-5.3,1.2l0.2-18.5
			l5.3-1.2c4.8-1.1,9.5,0.7,9.5,6.9L40.4,102.3L40.4,102.3z"/>
		<path class="st1" d="M106.9,72.3c-1.7,0.4-2.7,1.9-2.7,3l-0.2,19.8c0,4.9,0.3,10.2,0.7,15.6l-0.4,0.1L87.7,79.5
			c-0.8-1.8-1.9-2.3-3.3-2c-1.7,0.4-2.6,1.9-2.6,4l-0.4,44.1c0,1.1,0.9,2.1,2.6,1.8c1.7-0.4,2.7-1.9,2.7-3l0.2-19.6
			c0-4.9-0.3-10.4-0.7-15.8l0.4-0.1l16.7,31.5c0.8,1.6,1.9,2.1,3.3,1.8c1.7-0.4,2.6-1.9,2.6-4l0.4-44.1
			C109.5,73,108.6,72,106.9,72.3z"/>
		<path class="st1" d="M139.6,64.1c-0.5,0.1-1.9,0.6-2.8,2.6l-8.9,21l-8.6-17c-0.8-1.6-2-1.5-2.6-1.3c-2.1,0.5-3,2.6-2.2,4
			l10.8,19.8l-0.2,21.3c0,1.1,0.9,2.1,2.5,1.8c1.7-0.4,2.7-1.9,2.7-2.9l0.2-21.3l11.4-24.8C142.6,65.2,141.8,63.5,139.6,64.1z"/>
		<path class="st1" d="M149,32.1l-10,2.3c-2.3,0.5-4.7-0.4-4.6-3.8v-0.2c0-3.1,2.1-4.9,4.3-5.4c2.2-0.5,3.7,0.5,4.1,1.7L143,27
			c0.2,0.5,0.4,1.4,1.6,1.1c0.9-0.2,1.5-1,1.5-1.6l0-0.2c0-2.1-2.2-5-7.3-3.9c-4.2,1-7.4,4.6-7.4,8.6v0.3c0,2,1.1,4.7,4.2,5
			c-3.4,2.1-4.7,5.6-4.7,8.4l0,0.3c0,4.7,2.6,7.5,7.8,6.3c4.7-1.1,7.5-4.6,7.5-8.5l0.1-6.9c0-0.2,0-0.4-0.1-0.7l2.9-0.7
			c0.8-0.2,1.3-0.8,1.3-1.6C150.3,32.4,149.8,31.9,149,32.1z M143,43.5c0,3.1-2.2,4.9-4.6,5.5c-2.3,0.5-4.6-0.9-4.6-4.8l0-0.2
			c0-4.2,2.6-6.4,5.1-7l4.1-0.9L143,43.5z"/>
		<path class="st1" d="M63.3,84C54.8,86,50,92.1,49.9,98.9l-0.2,26.2c-0.1,6.8,4.7,10.7,13.2,8.8c8.5-1.9,13.3-8.1,13.4-14.8
			l0.2-26.2C76.6,86.1,71.8,82.1,63.3,84z M71,120.3c0,5.3-4.1,8.5-8.1,9.5c-4,0.9-8-0.5-8-5.8l0.2-26.1c0-5.3,4.1-8.5,8.1-9.5
			c4-0.9,8,0.5,8,5.8L71,120.3z"/>
	</g>
	<g>
		<path class="st2" d="M24.5,86c0,1.1-1,2.6-2.7,3c-1.7,0.4-2.6-0.7-2.6-1.8l0.4-44.5c0-1.1,1-2.6,2.6-2.9l8-1.8
			c8.7-2,14.7,2.4,14.7,10v0.5C44.8,56,38.7,63.1,30,65.1l-5.3,1.2L24.5,86z M30,60.7c4.8-1.1,9.6-4.9,9.6-11.2v-0.4
			c0.1-6.3-4.7-8-9.5-6.9l-5.3,1.2l-0.2,18.5L30,60.7z"/>
		<path class="st2" d="M57.2,78.5c0,1.1-1,2.6-2.7,3c-1.7,0.4-2.6-0.7-2.6-1.8l0.4-45.2c0-1.1,1-2.6,2.6-2.9
			c1.7-0.4,2.6,0.7,2.6,1.8L57.2,78.5z"/>
		<path class="st2" d="M91.6,25.6c0-1.1,1-2.6,2.7-3c1.7-0.4,2.6,0.7,2.6,1.8l-0.4,44.1c0,2.1-0.9,3.6-2.6,4
			c-1.4,0.3-2.4-0.3-3.3-1.8L73.9,39.2l-0.4,0.1c0.4,5.4,0.7,11,0.7,15.8L74,74.7c0,1.1-1,2.6-2.7,3c-1.7,0.4-2.6-0.7-2.6-1.8
			l0.4-44.1c0-2.2,0.9-3.6,2.6-4c1.4-0.3,2.4,0.3,3.3,2L91.7,61l0.4-0.1c-0.4-5.4-0.7-10.8-0.7-15.6L91.6,25.6z"/>
		<path class="st2" d="M128.9,15.4c1.4-0.3,2.3,0.4,2.3,1.6c0,1.2-1,2.4-2.3,2.7l-9.3,2.1l-0.4,42.6c0,1.1-1,2.6-2.7,3
			c-1.6,0.4-2.6-0.7-2.6-1.8l0.4-42.6l-9.3,2.1c-1.4,0.3-2.3-0.4-2.3-1.6c0-1.2,1-2.4,2.3-2.7L128.9,15.4z"/>
	</g>
	<g>
		<path class="st2" d="M24.5,138.2c0,1.1-1,2.6-2.7,3c-1.7,0.4-2.6-0.7-2.6-1.8l0.4-44.5c0-1.1,1-2.6,2.6-2.9l8-1.8
			c8.7-2,14.7,2.4,14.7,10v0.5c-0.1,7.6-6.2,14.7-14.9,16.7l-5.3,1.2L24.5,138.2z M30,113c4.8-1.1,9.6-4.9,9.6-11.2v-0.4
			c0.1-6.3-4.7-8-9.5-6.9l-5.3,1.2l-0.2,18.6L30,113z"/>
		<path class="st2" d="M103.5,74.8c0-1.1,1-2.6,2.7-3c1.7-0.4,2.6,0.7,2.6,1.8l-0.4,44.1c0,2.1-0.9,3.6-2.6,4
			c-1.4,0.3-2.4-0.3-3.3-1.8L85.8,88.4l-0.4,0.1c0.4,5.4,0.7,10.9,0.7,15.8L86,123.9c0,1.1-1,2.6-2.7,3c-1.7,0.4-2.6-0.7-2.6-1.8
			L81.1,81c0-2.2,0.9-3.6,2.6-4c1.4-0.3,2.4,0.2,3.3,2l16.7,31.3l0.4-0.1c-0.4-5.4-0.7-10.7-0.7-15.6L103.5,74.8z"/>
		<path class="st2" d="M136.1,66.1c0.9-2,2.3-2.5,2.8-2.6c2.2-0.5,3,1.2,2.2,3l-11.4,24.8l-0.2,21.3c0,1.1-0.9,2.6-2.7,2.9
			c-1.6,0.4-2.6-0.7-2.5-1.8l0.2-21.3l-10.8-19.8c-0.8-1.5,0.1-3.6,2.2-4c0.6-0.1,1.8-0.3,2.6,1.3l8.6,17L136.1,66.1z"/>
	</g>
	<path class="st2" d="M149,55.9c-0.4-1.3-1.7-2-3-1.7c-1.3,0.4-2,1.7-1.7,3c1.8,6.3,2.7,12.8,2.7,19.4c0,38.8-31.5,70.3-70.3,70.3
		c-16.3,0-32.1-5.7-44.7-16c-1-0.9-2.6-0.7-3.4,0.3c-0.9,1-0.7,2.6,0.3,3.4c13.4,11,30.4,17.1,47.8,17.1c41.5,0,75.2-33.7,75.2-75.2
		C151.9,69.7,150.9,62.7,149,55.9z"/>
	<path class="st2" d="M6.4,76.7C6.4,38,38,6.4,76.7,6.4c12,0,23.8,3.1,34.2,8.8c1.2,0.7,2.7,0.2,3.3-0.9c0.7-1.2,0.2-2.7-0.9-3.3
		c-11.1-6.2-23.7-9.5-36.5-9.5C35.3,1.5,1.5,35.3,1.5,76.7c0,13,3.4,25.8,9.8,37.1c0.4,0.8,1.3,1.2,2.1,1.2c0.4,0,0.8-0.1,1.2-0.3
		c1.2-0.7,1.6-2.2,0.9-3.3C9.6,100.9,6.4,88.9,6.4,76.7z"/>
	<g>
		<path class="st2" d="M145.3,34.8c0,0.3,0.1,0.5,0.1,0.7l-0.1,6.9c0,3.9-2.8,7.5-7.5,8.5c-5.1,1.2-7.8-1.6-7.8-6.3l0-0.3
			c0-2.9,1.3-6.3,4.7-8.4c-3.1-0.3-4.2-3-4.2-5v-0.3c0-4,3.2-7.6,7.4-8.6c5.1-1.2,7.3,1.8,7.3,3.9l0,0.2c0,0.6-0.6,1.4-1.5,1.6
			c-1.2,0.3-1.5-0.6-1.6-1.1l-0.1-0.4c-0.4-1.2-2-2.2-4.1-1.7c-2.2,0.5-4.3,2.3-4.3,5.4v0.2c0,3.4,2.3,4.3,4.6,3.8l10-2.3
			c0.8-0.2,1.3,0.2,1.3,1c0,0.7-0.6,1.4-1.3,1.6L145.3,34.8z M142.3,43l0.1-7.6l-4.1,0.9c-2.5,0.6-5.1,2.8-5.1,7l0,0.2
			c0,3.9,2.3,5.3,4.6,4.8C140.1,47.9,142.3,46.1,142.3,43z"/>
	</g>
	<path class="st2" d="M49.2,98.4c0.1-6.8,4.9-13,13.4-14.9c8.5-1.9,13.2,2,13.2,8.9l-0.2,26.2c-0.1,6.7-4.9,12.9-13.4,14.8
		c-8.5,1.9-13.2-2-13.2-8.8L49.2,98.4z M54.5,97.3l-0.2,26.1c0,5.3,4,6.7,8,5.8c4-0.9,8.1-4.2,8.1-9.5l0.2-26.1c0-5.3-4-6.7-8-5.8
		C58.5,88.8,54.5,92,54.5,97.3z"/>
	<g>
		<g>
			<path class="st0" d="M58.4,16c0.4-0.1,0.7,0.1,0.7,0.5c0,0.3-0.2,0.7-0.7,0.8l-1.8,0.4l-0.1,8.7c0,0.3-0.3,0.7-0.7,0.8
				c-0.5,0.1-0.7-0.2-0.7-0.5l0.1-8.7l-1.8,0.4c-0.4,0.1-0.7-0.2-0.7-0.5c0-0.3,0.2-0.7,0.7-0.8L58.4,16z"/>
			<path class="st0" d="M66.4,24.2c0,0.3-0.2,0.7-0.7,0.8c-0.5,0.1-0.7-0.2-0.7-0.5l0-4.1l-3.3,0.7l0,4.1c0,0.3-0.2,0.7-0.7,0.8
				c-0.5,0.1-0.7-0.2-0.7-0.5l0.1-9.4c0-0.3,0.2-0.7,0.7-0.8c0.5-0.1,0.7,0.2,0.7,0.5l0,4l3.3-0.7l0-4c0-0.3,0.3-0.7,0.7-0.8
				c0.5-0.1,0.7,0.2,0.7,0.5L66.4,24.2z"/>
			<path class="st0" d="M68.9,14.4c0-0.3,0.2-0.7,0.7-0.8l3.9-0.9c0.4-0.1,0.7,0.1,0.7,0.5c0,0.3-0.2,0.7-0.7,0.8l-3.2,0.7l0,3.3
				l2.4-0.5c0.4-0.1,0.7,0.2,0.7,0.5c0,0.3-0.2,0.7-0.7,0.8l-2.4,0.5l0,3.4l3.2-0.7c0.4-0.1,0.7,0.2,0.7,0.5c0,0.3-0.2,0.7-0.7,0.8
				L69.5,24c-0.5,0.1-0.7-0.2-0.7-0.5L68.9,14.4z"/>
		</g>
		<g>
			<path class="st1" d="M57.9,15.7c0.4-0.1,0.7,0.1,0.7,0.5c0,0.3-0.2,0.7-0.7,0.8l-1.8,0.4L56.1,26c0,0.3-0.3,0.7-0.7,0.8
				c-0.5,0.1-0.7-0.2-0.7-0.5l0.1-8.7L52.9,18c-0.4,0.1-0.7-0.2-0.7-0.5c0-0.3,0.2-0.7,0.7-0.8L57.9,15.7z"/>
			<path class="st1" d="M65.9,23.8c0,0.3-0.2,0.7-0.7,0.8c-0.5,0.1-0.7-0.2-0.7-0.5l0-4.1l-3.3,0.7l0,4.1c0,0.3-0.2,0.7-0.7,0.8
				c-0.5,0.1-0.7-0.2-0.7-0.5l0.1-9.4c0-0.3,0.2-0.7,0.7-0.8c0.5-0.1,0.7,0.2,0.7,0.5l0,4l3.3-0.7l0-4c0-0.3,0.3-0.7,0.7-0.8
				c0.5-0.1,0.7,0.2,0.7,0.5L65.9,23.8z"/>
			<path class="st1" d="M68.4,14c0-0.3,0.2-0.7,0.7-0.8l3.9-0.9c0.4-0.1,0.7,0.1,0.7,0.5c0,0.3-0.2,0.7-0.7,0.8l-3.2,0.7l0,3.3
				l2.4-0.5c0.4-0.1,0.7,0.2,0.7,0.5c0,0.3-0.2,0.7-0.7,0.8l-2.4,0.5l0,3.4l3.2-0.7c0.4-0.1,0.7,0.2,0.7,0.5c0,0.3-0.2,0.7-0.7,0.8
				l-3.9,0.9c-0.5,0.1-0.7-0.2-0.7-0.5L68.4,14z"/>
		</g>
		<g>
			<path class="st2" d="M57.5,15.2c0.4-0.1,0.7,0.1,0.7,0.5c0,0.3-0.2,0.7-0.7,0.8l-1.8,0.4l-0.1,8.7c0,0.3-0.3,0.7-0.7,0.8
				c-0.5,0.1-0.7-0.2-0.7-0.5l0.1-8.7l-1.8,0.4c-0.4,0.1-0.7-0.2-0.7-0.5c0-0.3,0.2-0.7,0.7-0.8L57.5,15.2z"/>
			<path class="st2" d="M65.5,23.4c0,0.3-0.2,0.7-0.7,0.8C64.3,24.3,64,24,64,23.7l0-4.1l-3.3,0.7l0,4.1c0,0.3-0.2,0.7-0.7,0.8
				c-0.5,0.1-0.7-0.2-0.7-0.5l0.1-9.4c0-0.3,0.2-0.7,0.7-0.8c0.5-0.1,0.7,0.2,0.7,0.5l0,4l3.3-0.7l0-4c0-0.3,0.3-0.7,0.7-0.8
				c0.5-0.1,0.7,0.2,0.7,0.5L65.5,23.4z"/>
			<path class="st2" d="M67.9,13.6c0-0.3,0.2-0.7,0.7-0.8l3.9-0.9c0.4-0.1,0.7,0.1,0.7,0.5c0,0.3-0.2,0.7-0.7,0.8l-3.2,0.7l0,3.3
				l2.4-0.5c0.4-0.1,0.7,0.2,0.7,0.5c0,0.3-0.2,0.7-0.7,0.8l-2.4,0.5l0,3.4l3.2-0.7c0.4-0.1,0.7,0.2,0.7,0.5c0,0.3-0.2,0.7-0.7,0.8
				l-3.9,0.9c-0.5,0.1-0.7-0.2-0.7-0.5L67.9,13.6z"/>
		</g>
	</g>
</g>
</svg>
