<?xml version="1.0" encoding="utf-8"?>
<!-- Generator: Adobe Illustrator 23.1.1, SVG Export Plug-In . SVG Version: 6.00 Build 0)  -->
<svg version="1.1" id="Layer_1" xmlns="http://www.w3.org/2000/svg" xmlns:xlink="http://www.w3.org/1999/xlink" x="0px" y="0px"
	 viewBox="0 0 153.148 170.26" style="enable-background:new 0 0 153.148 170.26;" xml:space="preserve">
<style type="text/css">
	.st0{fill:#2B363F;}
	.st1{fill:#61758B;}
	.st2{fill:#FFFFFF;}
</style>
<g>
	<g>
		<path class="st0" d="M32.104,39.045l-7.974,1.811c-1.658,0.374-2.597,1.867-2.609,2.948L21.148,88.34
			c-0.011,1.075,0.911,2.145,2.564,1.771c1.726-0.39,2.665-1.89,2.677-2.965l0.17-19.705l5.314-1.2
			c8.692-1.981,14.849-9.032,14.911-16.66v-0.538C46.851,41.416,40.796,37.07,32.104,39.045z M41.543,50.708
			c-0.057,6.276-4.821,10.118-9.632,11.21l-5.314,1.205l0.153-18.55l5.319-1.211c4.81-1.092,9.53,0.668,9.473,6.938V50.708z"/>
		<path class="st0" d="M56.358,82.681c1.72-0.391,2.665-1.885,2.677-2.965l0.385-45.21c0.011-1.075-0.911-2.145-2.637-1.754
			c-1.652,0.374-2.603,1.873-2.609,2.948l-0.379,45.21C53.783,81.985,54.706,83.06,56.358,82.681z"/>
		<path class="st0" d="M73.211,78.844c1.726-0.391,2.671-1.885,2.682-2.965l0.164-19.569c0.04-4.856-0.266-10.373-0.656-15.811
			l0.362-0.079l16.654,31.504c0.849,1.556,1.913,2.128,3.282,1.817c1.726-0.396,2.597-1.935,2.614-4.029l0.374-44.129
			c0.011-1.075-0.917-2.15-2.569-1.771c-1.72,0.39-2.665,1.884-2.677,2.96l-0.164,19.773c-0.04,4.861,0.272,10.175,0.657,15.613
			l-0.362,0.074L76.917,30.935c-0.843-1.766-1.918-2.332-3.277-2.02c-1.726,0.391-2.603,1.867-2.62,4.029l-0.374,44.129
			C70.636,78.148,71.558,79.223,73.211,78.844z"/>
		<path class="st0" d="M106.881,26.334l9.264-2.105l-0.356,42.578c-0.011,1.075,0.911,2.15,2.558,1.777
			c1.726-0.396,2.671-1.885,2.682-2.971l0.362-42.573l9.337-2.122c1.364-0.306,2.309-1.466,2.315-2.677
			c0.006-1.217-0.917-1.947-2.275-1.641l-23.853,5.416c-1.369,0.311-2.309,1.466-2.32,2.682
			C104.59,25.916,105.512,26.646,106.881,26.334z"/>
		<path class="st0" d="M32.104,91.327l-7.974,1.811c-1.658,0.374-2.597,1.867-2.609,2.948l-0.374,44.536
			c-0.011,1.075,0.911,2.145,2.564,1.771c1.726-0.391,2.665-1.89,2.677-2.965l0.17-19.705l5.314-1.2
			c8.692-1.981,14.849-9.032,14.911-16.66v-0.538C46.851,93.698,40.796,89.352,32.104,91.327z M41.543,102.99
			c-0.057,6.276-4.821,10.118-9.632,11.211l-5.314,1.205l0.153-18.55l5.319-1.211c4.81-1.092,9.53,0.668,9.473,6.938V102.99z"/>
		<path class="st0" d="M108.072,73.026c-1.726,0.385-2.665,1.885-2.677,2.96l-0.17,19.773c-0.034,4.861,0.277,10.175,0.657,15.608
			l-0.356,0.079l-16.654-31.3c-0.849-1.766-1.918-2.326-3.282-2.015c-1.72,0.391-2.598,1.867-2.615,4.029l-0.374,44.129
			c-0.011,1.075,0.911,2.145,2.564,1.771c1.726-0.391,2.665-1.885,2.677-2.965l0.17-19.569c0.04-4.861-0.271-10.373-0.656-15.811
			l0.362-0.085l16.654,31.509c0.843,1.556,1.913,2.128,3.282,1.817c1.726-0.396,2.598-1.935,2.614-4.029l0.374-44.129
			C110.647,73.716,109.725,72.647,108.072,73.026z"/>
		<path class="st0" d="M140.731,64.743c-0.494,0.112-1.924,0.566-2.787,2.563l-8.923,20.981l-8.592-17.004
			c-0.836-1.604-2.047-1.464-2.619-1.335c-2.131,0.482-3.006,2.552-2.238,4.043l10.774,19.781l-0.18,21.328
			c-0.011,1.071,0.909,2.125,2.541,1.761c1.711-0.393,2.653-1.868,2.658-2.944l0.179-21.328l11.368-24.806
			C143.777,65.915,142.947,64.238,140.731,64.743z"/>
		<path class="st0" d="M150.134,32.803l-9.996,2.271c-2.337,0.531-4.653-0.427-4.627-3.794v-0.233
			c0.03-3.052,2.123-4.893,4.332-5.395c2.166-0.492,3.738,0.479,4.141,1.716l0.125,0.361c0.161,0.548,0.446,1.382,1.611,1.119
			c0.916-0.21,1.46-0.958,1.467-1.585l0.003-0.236c0.016-2.074-2.202-5.044-7.328-3.879c-4.207,0.955-7.354,4.598-7.39,8.552v0.312
			c-0.016,1.995,1.083,4.712,4.197,5.021c-3.426,2.067-4.703,5.559-4.726,8.414l-0.007,0.315c-0.036,4.693,2.642,7.482,7.764,6.321
			c4.749-1.08,7.482-4.627,7.515-8.539l0.059-6.888c0-0.158-0.039-0.42-0.076-0.686l2.914-0.663c0.791-0.177,1.336-0.85,1.346-1.552
			C151.463,33.049,150.929,32.626,150.134,32.803z M144.175,44.194c-0.023,3.052-2.159,4.903-4.578,5.454
			c-2.333,0.528-4.65-0.938-4.617-4.811l0.003-0.236c0.036-4.223,2.593-6.442,5.133-7.023l4.125-0.935L144.175,44.194z"/>
		<path class="st0" d="M64.481,84.719c-8.477,1.924-13.327,8.081-13.389,14.894l-0.226,26.246
			c-0.051,6.751,4.714,10.718,13.191,8.788c8.477-1.924,13.332-8.081,13.395-14.827l0.221-26.246
			C77.729,86.762,72.958,82.795,64.481,84.719z M72.205,120.948c-0.045,5.257-4.092,8.54-8.115,9.451
			c-4.018,0.917-8.025-0.532-7.979-5.8l0.221-26.111c0.045-5.263,4.086-8.539,8.109-9.451c4.029-0.911,8.03,0.538,7.985,5.801
			L72.205,120.948z"/>
	</g>
	<g>
		<path class="st1" d="M30.945,38.354l-7.974,1.811c-1.658,0.374-2.597,1.867-2.609,2.948L19.989,87.65
			c-0.011,1.075,0.911,2.145,2.564,1.771c1.726-0.39,2.665-1.89,2.677-2.965l0.17-19.705l5.314-1.2
			c8.692-1.981,14.849-9.032,14.911-16.66v-0.538C45.693,40.725,39.637,36.379,30.945,38.354z M40.384,50.017
			c-0.057,6.276-4.821,10.118-9.632,11.21l-5.314,1.205l0.153-18.55l5.319-1.211c4.81-1.092,9.53,0.668,9.473,6.938V50.017z"/>
		<path class="st1" d="M55.2,81.991c1.72-0.391,2.665-1.885,2.677-2.965l0.385-45.21c0.011-1.075-0.911-2.145-2.637-1.754
			c-1.652,0.374-2.603,1.873-2.609,2.948l-0.379,45.21C52.625,81.295,53.547,82.37,55.2,81.991z"/>
		<path class="st1" d="M72.052,78.154c1.726-0.391,2.671-1.885,2.682-2.965l0.164-19.569c0.04-4.856-0.266-10.373-0.656-15.811
			l0.362-0.079l16.654,31.504c0.849,1.556,1.913,2.128,3.282,1.817c1.726-0.396,2.597-1.935,2.614-4.029l0.374-44.129
			c0.011-1.075-0.917-2.15-2.569-1.771c-1.72,0.39-2.665,1.884-2.677,2.96l-0.164,19.773c-0.04,4.861,0.272,10.175,0.657,15.613
			l-0.362,0.074L75.759,30.245c-0.843-1.766-1.918-2.332-3.277-2.02c-1.726,0.391-2.603,1.867-2.62,4.029l-0.374,44.129
			C69.477,77.458,70.4,78.533,72.052,78.154z"/>
		<path class="st1" d="M105.723,25.644l9.264-2.105l-0.356,42.578c-0.011,1.075,0.911,2.15,2.558,1.777
			c1.726-0.396,2.671-1.885,2.682-2.971l0.362-42.573l9.337-2.122c1.364-0.306,2.309-1.466,2.315-2.677
			c0.006-1.217-0.917-1.947-2.275-1.641l-23.853,5.416c-1.369,0.311-2.309,1.466-2.32,2.682
			C103.431,25.225,104.354,25.955,105.723,25.644z"/>
		<path class="st1" d="M30.945,90.636l-7.974,1.811c-1.658,0.374-2.597,1.867-2.609,2.948l-0.374,44.536
			c-0.011,1.075,0.911,2.145,2.564,1.771c1.726-0.391,2.665-1.89,2.677-2.965l0.17-19.705l5.314-1.2
			c8.692-1.981,14.849-9.032,14.911-16.66v-0.538C45.693,93.007,39.637,88.661,30.945,90.636z M40.384,102.299
			c-0.057,6.276-4.821,10.118-9.632,11.211l-5.314,1.205l0.153-18.55l5.319-1.211c4.81-1.092,9.53,0.668,9.473,6.938V102.299z"/>
		<path class="st1" d="M106.914,72.336c-1.726,0.385-2.665,1.885-2.677,2.96l-0.17,19.773c-0.034,4.861,0.277,10.175,0.657,15.608
			l-0.356,0.079l-16.654-31.3c-0.849-1.766-1.918-2.326-3.282-2.015c-1.72,0.391-2.598,1.867-2.615,4.029l-0.374,44.129
			c-0.011,1.075,0.911,2.145,2.564,1.771c1.726-0.391,2.665-1.885,2.677-2.965l0.17-19.569c0.04-4.861-0.271-10.373-0.656-15.811
			l0.362-0.085l16.654,31.509c0.843,1.556,1.913,2.128,3.282,1.817c1.726-0.396,2.598-1.935,2.614-4.029l0.374-44.129
			C109.489,73.026,108.567,71.957,106.914,72.336z"/>
		<path class="st1" d="M139.573,64.052c-0.494,0.112-1.924,0.566-2.787,2.563l-8.923,20.981l-8.592-17.004
			c-0.836-1.604-2.047-1.464-2.619-1.335c-2.131,0.482-3.006,2.552-2.238,4.043l10.774,19.781l-0.18,21.328
			c-0.011,1.071,0.909,2.125,2.541,1.761c1.711-0.393,2.653-1.868,2.658-2.944l0.179-21.328l11.368-24.806
			C142.618,65.225,141.788,63.548,139.573,64.052z"/>
		<path class="st1" d="M148.976,32.113l-9.996,2.271c-2.337,0.531-4.653-0.427-4.627-3.794v-0.233
			c0.03-3.052,2.123-4.893,4.332-5.395c2.166-0.492,3.738,0.479,4.141,1.716l0.125,0.361c0.161,0.548,0.446,1.382,1.611,1.119
			c0.916-0.21,1.46-0.958,1.467-1.585l0.003-0.236c0.016-2.074-2.202-5.044-7.328-3.879c-4.207,0.955-7.354,4.598-7.39,8.552v0.312
			c-0.016,1.995,1.083,4.712,4.197,5.021c-3.426,2.067-4.703,5.559-4.726,8.414l-0.007,0.315c-0.036,4.693,2.642,7.482,7.764,6.321
			c4.749-1.08,7.482-4.627,7.515-8.539l0.059-6.888c0-0.158-0.039-0.42-0.076-0.686l2.914-0.663c0.791-0.177,1.336-0.85,1.346-1.552
			C150.305,32.359,149.77,31.936,148.976,32.113z M143.017,43.504c-0.023,3.052-2.159,4.903-4.578,5.454
			c-2.333,0.528-4.65-0.938-4.617-4.811l0.003-0.236c0.036-4.223,2.593-6.442,5.133-7.023l4.125-0.935L143.017,43.504z"/>
		<path class="st1" d="M63.322,84.029c-8.477,1.924-13.327,8.081-13.389,14.894l-0.226,26.246
			c-0.051,6.751,4.714,10.718,13.191,8.788c8.477-1.924,13.332-8.081,13.395-14.827l0.221-26.246
			C76.57,86.072,71.8,82.105,63.322,84.029z M71.047,120.258c-0.045,5.257-4.092,8.54-8.115,9.451
			c-4.018,0.917-8.025-0.532-7.979-5.8l0.221-26.111c0.045-5.263,4.086-8.539,8.109-9.451c4.029-0.911,8.03,0.538,7.985,5.801
			L71.047,120.258z"/>
	</g>
	<g>
		<path class="st2" d="M24.507,85.96c-0.011,1.075-0.951,2.575-2.677,2.965c-1.652,0.373-2.575-0.696-2.564-1.771l0.373-44.536
			c0.011-1.081,0.951-2.575,2.609-2.948l7.974-1.811c8.692-1.975,14.747,2.371,14.679,9.999v0.538
			c-0.062,7.628-6.219,14.679-14.911,16.66l-5.314,1.2L24.507,85.96z M30.03,60.732c4.81-1.092,9.575-4.935,9.632-11.21v-0.407
			c0.057-6.27-4.663-8.03-9.473-6.938l-5.319,1.211l-0.153,18.55L30.03,60.732z"/>
		<path class="st2" d="M57.154,78.53c-0.011,1.081-0.956,2.575-2.677,2.965c-1.652,0.379-2.575-0.696-2.564-1.771l0.379-45.21
			c0.006-1.075,0.956-2.575,2.609-2.948c1.726-0.39,2.648,0.679,2.637,1.754L57.154,78.53z"/>
		<path class="st2" d="M91.56,25.584c0.011-1.075,0.956-2.569,2.677-2.96c1.652-0.379,2.581,0.696,2.569,1.771l-0.373,44.129
			c-0.017,2.094-0.888,3.633-2.614,4.029c-1.369,0.311-2.433-0.26-3.282-1.817L73.882,39.234l-0.362,0.079
			c0.39,5.438,0.696,10.956,0.656,15.811l-0.164,19.569c-0.011,1.081-0.956,2.575-2.682,2.965c-1.652,0.379-2.575-0.696-2.564-1.771
			l0.373-44.129c0.017-2.162,0.894-3.639,2.62-4.029c1.358-0.311,2.433,0.255,3.277,2.02l16.654,31.294l0.362-0.074
			c-0.385-5.438-0.696-10.752-0.656-15.613L91.56,25.584z"/>
		<path class="st2" d="M128.887,15.415c1.358-0.306,2.281,0.424,2.275,1.641c-0.006,1.211-0.951,2.371-2.315,2.677l-9.337,2.122
			l-0.362,42.573c-0.011,1.087-0.956,2.575-2.682,2.971c-1.647,0.373-2.569-0.702-2.558-1.777l0.357-42.578l-9.264,2.105
			c-1.369,0.311-2.292-0.419-2.286-1.635c0.011-1.217,0.951-2.371,2.32-2.682L128.887,15.415z"/>
	</g>
	<g>
		<path class="st2" d="M24.507,138.242c-0.011,1.075-0.951,2.575-2.677,2.965c-1.652,0.373-2.575-0.696-2.564-1.771L19.64,94.9
			c0.011-1.081,0.951-2.575,2.609-2.948l7.974-1.811c8.692-1.975,14.747,2.371,14.679,9.999v0.538
			c-0.062,7.628-6.219,14.679-14.911,16.66l-5.314,1.2L24.507,138.242z M30.03,113.014c4.81-1.092,9.575-4.935,9.632-11.21v-0.407
			c0.057-6.27-4.663-8.03-9.473-6.938l-5.319,1.211l-0.153,18.55L30.03,113.014z"/>
		<path class="st2" d="M103.515,74.8c0.011-1.075,0.951-2.575,2.677-2.96c1.652-0.379,2.575,0.69,2.569,1.771l-0.373,44.129
			c-0.017,2.094-0.888,3.633-2.614,4.029c-1.369,0.311-2.439-0.26-3.282-1.817L85.836,88.444l-0.362,0.085
			c0.385,5.438,0.696,10.95,0.656,15.811l-0.17,19.569c-0.011,1.081-0.951,2.575-2.677,2.965c-1.652,0.373-2.575-0.696-2.564-1.771
			l0.373-44.129c0.017-2.162,0.894-3.639,2.614-4.029c1.364-0.311,2.433,0.249,3.282,2.015l16.654,31.3l0.357-0.079
			c-0.379-5.433-0.69-10.746-0.656-15.608L103.515,74.8z"/>
		<path class="st2" d="M136.063,66.12c0.864-1.997,2.294-2.451,2.787-2.563c2.215-0.505,3.045,1.172,2.182,3.04l-11.368,24.806
			l-0.179,21.328c-0.006,1.077-0.948,2.552-2.658,2.944c-1.632,0.365-2.552-0.69-2.541-1.761l0.179-21.328l-10.774-19.781
			c-0.768-1.492,0.107-3.561,2.238-4.044c0.572-0.129,1.783-0.269,2.619,1.335l8.592,17.004L136.063,66.12z"/>
	</g>
	<path class="st2" d="M149.002,55.938c-0.374-1.294-1.718-2.039-3.012-1.668c-1.294,0.371-2.039,1.718-1.668,3.012
		c1.807,6.294,2.724,12.838,2.724,19.448c0,38.773-31.544,70.317-70.317,70.317c-16.275,0-32.143-5.688-44.686-16.021
		c-1.034-0.856-2.568-0.713-3.427,0.333c-0.853,1.037-0.707,2.571,0.333,3.427c13.412,11.046,30.38,17.131,47.781,17.131
		c41.458,0,75.187-33.729,75.187-75.187C151.916,69.664,150.936,62.669,149.002,55.938z"/>
	<path class="st2" d="M6.415,76.731c0-38.77,31.544-70.314,70.314-70.314c11.966,0,23.779,3.056,34.16,8.84
		c1.189,0.659,2.66,0.231,3.313-0.942c0.653-1.176,0.231-2.66-0.942-3.313c-11.107-6.186-23.738-9.455-36.531-9.455
		c-41.455,0-75.184,33.729-75.184,75.184c0,13.018,3.377,25.843,9.769,37.089c0.45,0.789,1.271,1.233,2.121,1.233
		c0.406,0,0.821-0.101,1.198-0.317c1.17-0.666,1.579-2.153,0.916-3.32C9.573,100.9,6.415,88.906,6.415,76.731z"/>
	<g>
		<path class="st2" d="M145.32,34.784c0.036,0.266,0.075,0.528,0.075,0.686l-0.059,6.888c-0.033,3.912-2.766,7.459-7.515,8.539
			c-5.123,1.162-7.801-1.628-7.764-6.32l0.007-0.315c0.023-2.855,1.3-6.347,4.726-8.414c-3.114-0.308-4.214-3.026-4.197-5.021
			v-0.312c0.036-3.954,3.183-7.597,7.39-8.552c5.126-1.165,7.344,1.805,7.328,3.879l-0.003,0.236
			c-0.007,0.627-0.551,1.375-1.467,1.585c-1.165,0.263-1.451-0.571-1.611-1.119l-0.125-0.361c-0.404-1.237-1.976-2.209-4.141-1.716
			c-2.209,0.502-4.302,2.343-4.332,5.395v0.233c-0.026,3.367,2.291,4.325,4.627,3.794l9.996-2.271
			c0.794-0.177,1.329,0.246,1.326,0.952c-0.01,0.702-0.555,1.375-1.345,1.552L145.32,34.784z M142.294,43.008l0.066-7.551
			l-4.125,0.935c-2.54,0.581-5.096,2.799-5.133,7.023l-0.003,0.236c-0.033,3.872,2.284,5.339,4.617,4.811
			C140.135,47.911,142.271,46.06,142.294,43.008z"/>
	</g>
	<polygon class="st2" points="47.971,156.219 50.605,157.158 50.926,156.251 47.222,154.935 44.892,161.486 48.598,162.805 
		48.922,161.895 46.287,160.956 47.016,158.902 49.486,159.78 49.806,158.883 47.337,158.004 	"/>
	<path class="st2" d="M52.27,157.079c-0.485,0.206-0.808,0.59-0.967,1.148c-0.127,0.444-0.111,0.859,0.048,1.249
		c0.162,0.387,0.51,0.793,1.049,1.214c0.523,0.406,0.856,0.723,0.996,0.951c0.14,0.225,0.174,0.466,0.101,0.717
		c-0.079,0.276-0.244,0.469-0.498,0.574c-0.25,0.108-0.596,0.098-1.027-0.025c-0.295-0.086-0.606-0.216-0.923-0.396
		c-0.32-0.181-0.612-0.387-0.875-0.615l-0.295,1.034c0.415,0.371,0.999,0.666,1.757,0.881c0.755,0.216,1.398,0.216,1.925-0.003
		c0.526-0.216,0.872-0.621,1.043-1.214c0.086-0.301,0.108-0.58,0.063-0.834c-0.044-0.25-0.155-0.498-0.333-0.742
		c-0.178-0.241-0.485-0.536-0.916-0.878c-0.387-0.304-0.647-0.536-0.783-0.691c-0.136-0.159-0.222-0.311-0.26-0.453
		c-0.038-0.146-0.032-0.304,0.016-0.479c0.073-0.254,0.222-0.431,0.45-0.533c0.225-0.101,0.517-0.101,0.869,0
		c0.466,0.133,0.961,0.409,1.487,0.828l0.599-0.793c-0.555-0.463-1.151-0.783-1.791-0.967
		C53.335,156.86,52.758,156.869,52.27,157.079z"/>
	<polygon class="st2" points="56.309,157.817 56.106,158.768 58.104,159.2 56.842,165.043 57.952,165.284 59.214,159.441 
		61.214,159.872 61.42,158.921 	"/>
	<path class="st2" d="M66.354,162.421c0.244-0.238,0.396-0.558,0.453-0.961c0.082-0.596-0.067-1.062-0.45-1.398
		c-0.38-0.336-1.046-0.571-1.994-0.707l-2.045-0.289l-0.973,6.886l2.486,0.352c0.767,0.108,1.395,0.019,1.874-0.273
		c0.482-0.289,0.767-0.742,0.853-1.36c0.067-0.457,0.003-0.837-0.187-1.138c-0.187-0.301-0.517-0.529-0.989-0.691l0.006-0.044
		C65.786,162.782,66.11,162.659,66.354,162.421z M65.383,164.409c-0.054,0.39-0.216,0.659-0.479,0.805
		c-0.266,0.146-0.634,0.187-1.107,0.12l-1.195-0.171l0.308-2.178l1.141,0.162c0.498,0.07,0.859,0.209,1.078,0.415
		C65.352,163.768,65.434,164.054,65.383,164.409z M65.187,162.145c-0.238,0.12-0.593,0.146-1.062,0.079l-1.084-0.152l0.269-1.902
		l0.973,0.136c0.51,0.073,0.872,0.197,1.084,0.374c0.212,0.178,0.298,0.428,0.25,0.751C65.567,161.79,65.425,162.028,65.187,162.145
		z"/>
	<path class="st2" d="M86.731,165.512l-0.006-0.044l1.043-1.322c0.469-0.577,0.802-1.03,0.992-1.357
		c0.19-0.327,0.323-0.64,0.399-0.935c0.073-0.292,0.089-0.596,0.048-0.907c-0.076-0.564-0.33-0.989-0.761-1.275
		c-0.431-0.282-0.967-0.38-1.607-0.295c-0.409,0.054-0.783,0.174-1.129,0.355c-0.342,0.184-0.685,0.463-1.024,0.84l0.694,0.65
		c0.292-0.298,0.552-0.514,0.786-0.644c0.235-0.13,0.482-0.212,0.748-0.247c0.33-0.044,0.599,0.01,0.809,0.165
		c0.212,0.155,0.339,0.387,0.38,0.698c0.029,0.228,0.019,0.444-0.035,0.653c-0.051,0.209-0.146,0.438-0.289,0.685
		s-0.438,0.675-0.891,1.281l-1.541,2.023l0.114,0.84l4.67-0.625l-0.13-0.973L86.731,165.512z"/>
	<path class="st2" d="M94.007,159.038c-0.51-0.517-1.148-0.701-1.909-0.549c-0.78,0.159-1.303,0.561-1.569,1.208
		c-0.266,0.647-0.276,1.573-0.035,2.774c0.231,1.148,0.602,1.978,1.113,2.492c0.51,0.517,1.145,0.698,1.906,0.542
		c0.783-0.155,1.306-0.561,1.573-1.211c0.263-0.653,0.276-1.569,0.038-2.755C94.892,160.389,94.521,159.555,94.007,159.038z
		 M94.128,163.803c-0.114,0.441-0.38,0.707-0.799,0.789c-0.422,0.086-0.767-0.051-1.037-0.412c-0.273-0.358-0.501-1.002-0.688-1.931
		c-0.187-0.932-0.225-1.614-0.114-2.055c0.108-0.441,0.374-0.701,0.793-0.786c0.422-0.086,0.77,0.057,1.046,0.428
		s0.507,1.011,0.691,1.925C94.204,162.678,94.239,163.359,94.128,163.803z"/>
	<path class="st2" d="M98.034,163.363l-0.013-0.048l0.856-1.446c0.39-0.634,0.656-1.126,0.802-1.477
		c0.149-0.349,0.238-0.675,0.273-0.977c0.035-0.304,0.01-0.606-0.073-0.907c-0.149-0.552-0.457-0.938-0.923-1.164
		c-0.463-0.222-1.008-0.25-1.633-0.079c-0.396,0.108-0.755,0.276-1.072,0.504c-0.314,0.228-0.615,0.549-0.904,0.967l0.777,0.552
		c0.247-0.333,0.479-0.58,0.691-0.742c0.216-0.159,0.45-0.276,0.707-0.346c0.323-0.086,0.599-0.067,0.828,0.057
		c0.228,0.124,0.384,0.339,0.466,0.64c0.06,0.222,0.079,0.438,0.054,0.653c-0.022,0.212-0.089,0.45-0.197,0.717
		c-0.105,0.263-0.342,0.726-0.713,1.389l-1.256,2.21l0.222,0.818l4.55-1.24l-0.26-0.951L98.034,163.363z"/>
	<path class="st2" d="M104.347,155.991c-0.577-0.447-1.23-0.542-1.966-0.289c-0.751,0.257-1.217,0.726-1.395,1.401
		c-0.178,0.679-0.067,1.595,0.333,2.755c0.38,1.107,0.859,1.88,1.433,2.324c0.574,0.444,1.227,0.539,1.959,0.285
		c0.755-0.26,1.221-0.729,1.398-1.411c0.174-0.682,0.067-1.595-0.327-2.736C105.403,157.212,104.921,156.435,104.347,155.991z
		 M104.407,161.587c-0.403,0.14-0.764,0.051-1.081-0.269c-0.317-0.32-0.628-0.929-0.938-1.826c-0.308-0.897-0.438-1.569-0.387-2.02
		c0.054-0.45,0.279-0.745,0.685-0.885c0.406-0.139,0.77-0.044,1.091,0.285c0.323,0.33,0.637,0.935,0.942,1.817
		c0.304,0.885,0.431,1.554,0.377,2.007C105.041,161.153,104.813,161.448,104.407,161.587z"/>
	<path class="st2" d="M49.211,98.428c0.062-6.813,4.912-12.97,13.389-14.895c8.477-1.924,13.248,2.043,13.191,8.856l-0.221,26.246
		c-0.062,6.746-4.918,12.903-13.395,14.827c-8.477,1.93-13.242-2.037-13.191-8.788L49.211,98.428z M54.451,97.301l-0.221,26.111
		c-0.045,5.269,3.961,6.717,7.979,5.8c4.024-0.911,8.07-4.193,8.115-9.451l0.221-26.111c0.045-5.263-3.956-6.712-7.985-5.8
		C58.537,88.762,54.496,92.039,54.451,97.301z"/>
	<path class="st0" d="M79.104,161.234c0.022-1.112-0.134-2.227-0.188-3.342c-0.018-0.386-0.21-0.569-0.551-0.655
		c-0.081-0.02-1.221-0.256-2.573-0.288c-0.437,0.021-0.877,0.015-1.309,0.072c-0.486,0.064-0.966,0.176-1.445,0.287
		c-0.216,0.05-0.332,0.197-0.348,0.441c-0.057,0.863-0.154,1.724-0.193,2.588c-0.026,0.581-0.039,1.175,0.046,1.748
		c0.202,1.349,0.498,2.685,0.698,4.034c0.15,1.014,0.156,2.041-0.065,3.054c-0.05,0.229,0.013,0.41,0.203,0.534
		c0.147,0.096,0.303,0.185,0.467,0.244c0.997,0.362,2.028,0.368,3.056,0.208c0.431-0.067,0.848-0.253,1.256-0.423
		c0.22-0.092,0.301-0.297,0.261-0.558c-0.072-0.476-0.145-0.957-0.159-1.437c-0.04-1.329,0.205-2.626,0.464-3.924
		C78.894,162.964,79.087,162.098,79.104,161.234z M72.869,158.06c-0.044-0.067,0-0.449,0.138-0.517
		c0.138-0.069,1.35-0.431,2.785-0.381c1.435,0.05,2.247,0.2,2.729,0.354c0.201,0.064,0.249,0.477,0.181,0.544
		C78.544,158.213,72.912,158.127,72.869,158.06z"/>
	<g>
		<g>
			<path class="st0" d="M58.377,16.03c0.428-0.095,0.672,0.141,0.671,0.461c-0.004,0.32-0.25,0.679-0.681,0.774l-1.762,0.388
				l-0.067,8.696c-0.003,0.306-0.251,0.723-0.74,0.83c-0.461,0.102-0.703-0.206-0.702-0.512l0.067-8.698L53.4,18.357
				c-0.428,0.095-0.671-0.155-0.671-0.461c0.003-0.335,0.25-0.679,0.681-0.774L58.377,16.03z"/>
			<path class="st0" d="M66.392,24.182c-0.001,0.306-0.248,0.721-0.725,0.825c-0.474,0.107-0.718-0.204-0.715-0.507l0.033-4.139
				l-3.328,0.733l-0.032,4.137c-0.001,0.306-0.249,0.723-0.74,0.83c-0.459,0.102-0.703-0.206-0.7-0.512l0.073-9.409
				c0-0.303,0.248-0.721,0.709-0.823c0.49-0.109,0.733,0.201,0.73,0.505l-0.032,4.023l3.328-0.733l0.031-4.02
				c0.003-0.306,0.251-0.723,0.725-0.827c0.476-0.104,0.718,0.204,0.715,0.51L66.392,24.182z"/>
			<path class="st0" d="M68.874,14.37c0.003-0.306,0.25-0.708,0.742-0.815l3.924-0.864c0.443-0.097,0.687,0.138,0.686,0.459
				c-0.004,0.318-0.25,0.677-0.696,0.776l-3.22,0.708l-0.025,3.309l2.393-0.527c0.445-0.097,0.686,0.153,0.685,0.473
				c-0.002,0.32-0.249,0.665-0.695,0.762l-2.39,0.527l-0.028,3.44l3.22-0.708c0.443-0.097,0.686,0.153,0.686,0.459
				c-0.002,0.332-0.25,0.677-0.696,0.776l-3.924,0.864c-0.489,0.107-0.734-0.187-0.731-0.493L68.874,14.37z"/>
		</g>
		<g>
			<path class="st1" d="M57.905,15.683c0.428-0.095,0.672,0.141,0.671,0.461c-0.004,0.32-0.25,0.679-0.681,0.774l-1.762,0.388
				l-0.067,8.696c-0.003,0.306-0.251,0.723-0.74,0.83c-0.461,0.102-0.703-0.206-0.702-0.512l0.067-8.698l-1.762,0.388
				c-0.428,0.095-0.671-0.155-0.671-0.461c0.003-0.335,0.25-0.679,0.681-0.774L57.905,15.683z"/>
			<path class="st1" d="M65.92,23.835c-0.001,0.306-0.248,0.721-0.725,0.825c-0.474,0.107-0.718-0.204-0.715-0.507l0.033-4.139
				l-3.328,0.733l-0.032,4.137c-0.001,0.306-0.249,0.723-0.74,0.83c-0.459,0.102-0.703-0.206-0.7-0.512l0.073-9.409
				c0-0.303,0.248-0.721,0.709-0.823c0.49-0.109,0.733,0.201,0.73,0.505l-0.032,4.023l3.328-0.733l0.031-4.02
				c0.003-0.306,0.251-0.723,0.725-0.827c0.476-0.104,0.718,0.204,0.715,0.51L65.92,23.835z"/>
			<path class="st1" d="M68.401,14.023c0.003-0.306,0.25-0.708,0.742-0.815l3.924-0.864c0.443-0.097,0.687,0.138,0.686,0.459
				c-0.004,0.318-0.25,0.677-0.696,0.776l-3.22,0.708l-0.025,3.309l2.393-0.527c0.445-0.097,0.686,0.153,0.685,0.473
				c-0.002,0.32-0.249,0.665-0.695,0.762l-2.39,0.527l-0.028,3.44l3.22-0.708c0.443-0.097,0.686,0.153,0.686,0.459
				c-0.002,0.332-0.25,0.677-0.696,0.776l-3.924,0.864c-0.489,0.107-0.734-0.187-0.731-0.493L68.401,14.023z"/>
		</g>
		<g>
			<path class="st2" d="M57.45,15.228c0.428-0.095,0.672,0.141,0.671,0.461c-0.004,0.32-0.25,0.679-0.681,0.774l-1.762,0.388
				l-0.067,8.696c-0.003,0.306-0.251,0.723-0.74,0.83c-0.461,0.102-0.703-0.206-0.702-0.512l0.067-8.698l-1.762,0.388
				c-0.428,0.095-0.671-0.155-0.671-0.461c0.003-0.335,0.25-0.679,0.681-0.774L57.45,15.228z"/>
			<path class="st2" d="M65.465,23.38c-0.001,0.306-0.248,0.721-0.725,0.825c-0.474,0.107-0.718-0.204-0.715-0.507l0.033-4.139
				l-3.328,0.733l-0.032,4.137c-0.001,0.306-0.249,0.723-0.74,0.83c-0.459,0.102-0.703-0.206-0.7-0.512l0.073-9.409
				c0-0.303,0.248-0.721,0.709-0.823c0.49-0.109,0.733,0.201,0.73,0.505l-0.032,4.023l3.328-0.733l0.031-4.02
				c0.003-0.306,0.251-0.723,0.725-0.827c0.476-0.104,0.718,0.204,0.715,0.51L65.465,23.38z"/>
			<path class="st2" d="M67.947,13.568c0.003-0.306,0.25-0.708,0.742-0.815l3.924-0.864c0.443-0.097,0.687,0.138,0.686,0.459
				c-0.004,0.318-0.25,0.677-0.696,0.776l-3.22,0.708l-0.025,3.309l2.393-0.527c0.445-0.097,0.686,0.153,0.685,0.473
				c-0.002,0.32-0.249,0.665-0.695,0.762l-2.39,0.527l-0.028,3.44l3.22-0.708c0.443-0.097,0.686,0.153,0.686,0.459
				c-0.002,0.332-0.25,0.677-0.696,0.776l-3.924,0.864c-0.489,0.107-0.734-0.187-0.731-0.493L67.947,13.568z"/>
		</g>
	</g>
</g>
</svg>
