<?xml version="1.0" encoding="utf-8"?>
<!-- Generator: Adobe Illustrator 23.1.1, SVG Export Plug-In . SVG Version: 6.00 Build 0)  -->
<svg version="1.1" id="Layer_1" xmlns="http://www.w3.org/2000/svg" xmlns:xlink="http://www.w3.org/1999/xlink" x="0px" y="0px"
	 viewBox="0 0 118 25.815" style="enable-background:new 0 0 118 25.815;" xml:space="preserve">
<style type="text/css">
	.st0{fill:#DEE2E6;}
</style>
<g id="Group_337" transform="translate(-581 -382.296)">
	<rect id="Rectangle_422_2_" x="655" y="394.408" class="st0" width="44" height="2"/>
	<rect id="Rectangle_425_2_" x="581" y="394.408" class="st0" width="44" height="2"/>
	<g id="Group_338" transform="translate(-2908.87 1676.536)">
		<path id="Path_668" class="st0" d="M3540.964-1275.443c0.575-0.833,1.392-1.47,2.341-1.823c0.997-0.391,1.885-1.018,2.587-1.827
			c0.88-1.019,1.6-2.165,2.137-3.4c0.5-1.1,0.934-2.229,1.3-3.38c0.22-0.675,0.418-1.358,0.623-2.039
			c0.057-0.188,0.1-0.379,0.154-0.563l-4.345-2.286c-0.576,0.73-1.148,1.449-1.714,2.173c-0.821,1.038-1.565,2.135-2.225,3.283
			c-0.695,1.172-1.197,2.449-1.488,3.78c-0.173,0.955-0.143,1.935,0.088,2.877c0.239,1.099,0.107,2.246-0.374,3.263
			c-0.432,0.947-0.937,1.86-1.426,2.78c-0.198,0.381-0.46,0.726-0.774,1.019c-0.213,0.218-0.532,0.296-0.822,0.2
			c-0.437-0.124-0.88-0.225-1.323-0.321c-0.118-0.019-0.239-0.009-0.353,0.028c-0.097,0.019-0.161,0.114-0.142,0.211
			c0.008,0.038,0.027,0.073,0.056,0.099c0.048,0.055,0.106,0.099,0.171,0.131c1.348,0.711,2.697,1.421,4.046,2.13
			c0.157,0.083,0.316,0.162,0.477,0.238c0.103,0.062,0.235,0.043,0.318-0.044c0.094-0.1,0.033-0.207-0.025-0.3
			c-0.041-0.073-0.091-0.141-0.15-0.2c-0.333-0.3-0.664-0.6-1.01-0.891c-0.233-0.166-0.343-0.456-0.278-0.735
			c0.083-0.393,0.201-0.777,0.352-1.149c0.224-0.508,0.473-1.004,0.748-1.486
			C3540.233-1274.282,3540.584-1274.872,3540.964-1275.443z M3540.888-1279.279c-0.217-0.703-0.26-1.448-0.125-2.172
			c0.175-1.033,0.509-2.033,0.991-2.963c0.526-1.067,1.151-2.081,1.867-3.03c0.707-0.939,1.436-1.861,2.156-2.79
			c0.051-0.065,0.094-0.125,0.2-0.067c1.222,0.648,2.446,1.293,3.67,1.934c0.018,0.01,0.034,0.023,0.072,0.048
			c-0.243,0.786-0.483,1.565-0.725,2.342c-0.33,1.052-0.722,2.083-1.172,3.089c-0.415,0.951-0.935,1.852-1.551,2.687
			c-0.6,0.876-1.409,1.587-2.355,2.068c-0.505,0.268-1.088,0.348-1.646,0.226c-0.674-0.175-1.202-0.699-1.383-1.372
			L3540.888-1279.279z"/>
		<path id="Path_669" class="st0" d="M3558.301-1278.655c-0.312-0.963-0.322-1.999-0.026-2.967c0.295-1.03,0.336-2.116,0.12-3.165
			c-0.274-1.318-0.746-2.587-1.4-3.764c-0.572-1.064-1.206-2.094-1.9-3.083c-0.4-0.585-0.825-1.157-1.241-1.733
			c-0.115-0.159-0.238-0.312-0.354-0.464l-4.456,2.063c0.23,0.9,0.454,1.792,0.685,2.681c0.326,1.283,0.746,2.541,1.256,3.762
			c0.51,1.264,1.219,2.438,2.1,3.478c0.653,0.717,1.45,1.289,2.339,1.678c1.017,0.478,1.848,1.278,2.363,2.277
			c0.49,0.918,0.909,1.874,1.342,2.822c0.182,0.389,0.297,0.806,0.339,1.234c0.042,0.302-0.09,0.601-0.342,0.773
			c-0.364,0.271-0.714,0.562-1.059,0.856c-0.087,0.083-0.153,0.186-0.192,0.3c-0.056,0.148,0.033,0.259,0.194,0.256
			c0.073-0.005,0.143-0.024,0.208-0.056c1.384-0.639,2.767-1.279,4.15-1.92c0.161-0.075,0.321-0.153,0.479-0.234
			c0.112-0.045,0.177-0.161,0.158-0.28c-0.023-0.135-0.144-0.152-0.255-0.163c-0.083-0.012-0.167-0.012-0.25,0
			c-0.441,0.082-0.884,0.16-1.321,0.26c-0.274,0.084-0.571-0.005-0.753-0.226c-0.261-0.305-0.496-0.631-0.7-0.977
			c-0.268-0.487-0.51-0.988-0.726-1.5C3558.775-1277.37,3558.522-1278.007,3558.301-1278.655z M3555.208-1280.925
			c-0.69-0.255-1.307-0.674-1.8-1.22c-0.715-0.766-1.305-1.639-1.751-2.587c-0.528-1.065-0.954-2.178-1.272-3.324
			c-0.316-1.132-0.606-2.271-0.906-3.407c-0.021-0.08-0.042-0.151,0.071-0.2c1.257-0.577,2.511-1.157,3.765-1.74
			c0.019-0.009,0.039-0.013,0.082-0.028c0.477,0.671,0.949,1.334,1.42,2c0.635,0.901,1.216,1.838,1.741,2.807
			c0.503,0.907,0.903,1.868,1.192,2.864c0.331,1.009,0.404,2.084,0.212,3.128c-0.094,0.563-0.385,1.075-0.821,1.444
			C3556.591-1280.759,3555.853-1280.658,3555.208-1280.925z"/>
		<path id="Path_670" class="st0" d="M3543.148-1286.229c-0.065,0.116-0.149,0.279-0.39,0.682c-0.773,1.205-1.325,2.538-1.631,3.937
			c-0.151,0.687-0.14,1.4,0.031,2.083c0.164,0.9,1.027,1.497,1.927,1.333c0.128-0.023,0.253-0.062,0.373-0.115
			c0.558-0.203,1.069-0.519,1.5-0.927c0.786-0.732,1.439-1.595,1.93-2.551c0.348-0.645,0.662-1.307,0.94-1.985
			c0.328-0.8,0.6-1.625,0.893-2.441c0.001-0.006,0.001-0.012,0-0.018L3543.148-1286.229z M3543.042-1279.021
			c-0.054,0.109-0.187,0.154-0.296,0.1c-0.004-0.002-0.007-0.004-0.011-0.006c-0.111-0.055-0.157-0.19-0.102-0.301
			c0.001-0.001,0.001-0.002,0.002-0.004c0.053-0.114,0.188-0.163,0.302-0.11c0.006,0.003,0.012,0.006,0.018,0.01
			c0.109,0.059,0.15,0.194,0.091,0.303C3543.045-1279.026,3543.043-1279.024,3543.042-1279.021z M3543.35-1280.803
			c-0.084,0.148-0.271,0.202-0.421,0.12c-0.149-0.072-0.212-0.251-0.14-0.4c0.002-0.004,0.004-0.008,0.006-0.013
			c0.078-0.152,0.263-0.213,0.416-0.137c0.156,0.081,0.217,0.273,0.138,0.43H3543.35z M3543.82-1283.247
			c-0.09,0.161-0.289,0.228-0.458,0.153c-0.166-0.085-0.234-0.288-0.151-0.455c0.083-0.167,0.285-0.236,0.453-0.154
			c0.162,0.089,0.229,0.288,0.154,0.457L3543.82-1283.247z M3544.851-1281.596c-0.078,0.157-0.268,0.221-0.425,0.143
			c-0.011-0.005-0.022-0.012-0.032-0.018c-0.159-0.088-0.217-0.287-0.131-0.447c0.088-0.164,0.293-0.225,0.457-0.136
			c0.001,0,0.001,0.001,0.002,0.001c0.159,0.082,0.222,0.278,0.14,0.438C3544.858-1281.609,3544.855-1281.602,3544.851-1281.596
			L3544.851-1281.596z M3544.911-1284.611c-0.198-0.097-0.281-0.336-0.184-0.535c0.004-0.009,0.009-0.018,0.014-0.026
			c0.109-0.2,0.359-0.274,0.559-0.165c0.003,0.002,0.006,0.003,0.01,0.005c0.2,0.114,0.271,0.368,0.157,0.568
			c0,0,0,0.001-0.001,0.001c-0.106,0.194-0.349,0.265-0.543,0.159C3544.918-1284.606,3544.915-1284.608,3544.911-1284.611
			L3544.911-1284.611z M3545.504-1283.256c-0.065,0.109-0.205,0.144-0.314,0.08c-0.004-0.002-0.008-0.005-0.012-0.008
			c-0.106-0.063-0.142-0.2-0.079-0.307c0.001-0.002,0.002-0.004,0.003-0.005c0.067-0.11,0.211-0.144,0.321-0.076
			c0.002,0.001,0.004,0.002,0.005,0.003C3545.535-1283.503,3545.568-1283.363,3545.504-1283.256L3545.504-1283.256z
			 M3546.93-1285.304c-0.084,0.147-0.268,0.204-0.42,0.13c-0.152-0.076-0.213-0.261-0.138-0.413c0.07-0.15,0.249-0.215,0.399-0.144
			c0.004,0.002,0.007,0.004,0.011,0.005c0.156,0.072,0.224,0.257,0.152,0.413C3546.933-1285.31,3546.931-1285.307,3546.93-1285.304
			L3546.93-1285.304z"/>
		<path id="Path_671" class="st0" d="M3557.717-1284.133c-0.104-1.069-0.392-2.112-0.853-3.083
			c-0.301-0.668-0.636-1.319-1.005-1.952c-0.046-0.079-0.094-0.158-0.141-0.237h-1.635l0.011,0.02c0.066,0.156,0,0.337-0.152,0.413
			c-0.153,0.074-0.337,0.011-0.412-0.141c-0.048-0.092-0.046-0.202,0.006-0.291h-3.2c0.281,1.081,0.625,2.145,1.03,3.186
			c0.488,1.346,1.211,2.594,2.136,3.687c0.455,0.537,1.028,0.962,1.674,1.241c0.814,0.418,1.813,0.096,2.23-0.718
			c0.061-0.118,0.107-0.243,0.137-0.372C3557.72-1282.947,3557.78-1283.543,3557.717-1284.133z M3552.869-1287.565
			c-0.093-0.207,0-0.45,0.207-0.543c0.004-0.002,0.008-0.003,0.011-0.005c0.212-0.09,0.457,0.008,0.547,0.22
			c0,0.001,0.001,0.001,0.001,0.002c0.089,0.202-0.003,0.438-0.206,0.527c-0.004,0.002-0.008,0.004-0.012,0.005
			c-0.198,0.099-0.438,0.019-0.537-0.178c-0.004-0.009-0.009-0.018-0.012-0.028H3552.869z M3553.682-1285.207
			c-0.168,0.081-0.37,0.011-0.453-0.156c-0.081-0.167-0.013-0.369,0.153-0.453c0.169-0.074,0.366-0.008,0.456,0.153
			c0.072,0.17,0.004,0.366-0.157,0.455L3553.682-1285.207z M3554.713-1286.707c-0.115,0.047-0.245-0.009-0.292-0.123
			c-0.001-0.002-0.001-0.004-0.002-0.006c-0.045-0.12,0.016-0.254,0.136-0.299c0.001,0,0.003-0.001,0.004-0.001
			c0.118-0.047,0.253,0.011,0.3,0.129c0.046,0.118-0.012,0.251-0.13,0.297c-0.005,0.002-0.01,0.004-0.016,0.005V-1286.707z
			 M3555.333-1283.4c-0.148,0.075-0.328,0.015-0.403-0.133c-0.002-0.004-0.004-0.008-0.006-0.012
			c-0.075-0.154-0.01-0.339,0.143-0.414c0.159-0.075,0.35-0.008,0.426,0.151C3555.561-1283.651,3555.49-1283.468,3555.333-1283.4
			L3555.333-1283.4z M3555.597-1285.043c-0.167,0.073-0.361-0.002-0.435-0.168c-0.076-0.17-0.001-0.369,0.169-0.446
			c0.001,0,0.002-0.001,0.003-0.001c0.162-0.077,0.355-0.008,0.431,0.154c0.003,0.007,0.007,0.014,0.01,0.022
			c0.078,0.157,0.013,0.347-0.143,0.425c-0.012,0.006-0.024,0.011-0.036,0.015L3555.597-1285.043z M3556.609-1282.179
			c-0.111,0.054-0.244,0.01-0.3-0.1c-0.057-0.111-0.014-0.247,0.097-0.304c0.006-0.003,0.012-0.006,0.019-0.009
			c0.112-0.052,0.245-0.003,0.297,0.11c0.001,0.002,0.002,0.004,0.003,0.006c0.052,0.111,0.004,0.242-0.107,0.294
			C3556.615-1282.181,3556.612-1282.18,3556.609-1282.179L3556.609-1282.179z"/>
	</g>
</g>
</svg>
