<?xml version="1.0" encoding="utf-8"?>
<!-- Generator: Adobe Illustrator 23.1.1, SVG Export Plug-In . SVG Version: 6.00 Build 0)  -->
<svg version="1.1" id="Layer_1" xmlns="http://www.w3.org/2000/svg" xmlns:xlink="http://www.w3.org/1999/xlink" x="0px" y="0px"
	 viewBox="0 0 118 25.8" style="enable-background:new 0 0 118 25.8;" xml:space="preserve">
<style type="text/css">
	.st0{fill:#DEE2E6;}
</style>
<g id="Group_335" transform="translate(-581 -383.036)">
	<rect id="Rectangle_422_1_" x="655" y="394.4" class="st0" width="44" height="2"/>
	<rect id="Rectangle_425_1_" x="581" y="394.4" class="st0" width="44" height="2"/>
</g>
<g>
	<g>
		<path class="st0" d="M59.963,11.796c2.227-2.64,4.448-5.286,6.668-7.933c0.194-0.231,0.477-0.468,0.324-0.81
			c-0.168-0.374-0.552-0.316-0.881-0.317c-2.353-0.003-4.707-0.002-7.06-0.002c-2.378,0-4.756-0.002-7.134,0.003
			c-0.195,0-0.402,0.014-0.583,0.079c-0.253,0.091-0.37,0.293-0.247,0.563c0.06,0.133,0.14,0.263,0.233,0.374
			c2.251,2.685,4.503,5.37,6.761,8.048c0.099,0.117,0.198,0.209,0.298,0.289c0.028,0.241,0.293,1.052,0.293,1.202
			c0,2.824-0.01,5.649,0.008,8.473c0.003,0.48-0.188,0.625-0.617,0.709c-0.084,0.017-0.174,0.007-0.259,0.018
			c-0.893,0.124-1.787,0.239-2.677,0.383c-0.262,0.042-0.511,0.167-0.766,0.253c0.009,0.034,0.019,0.067,0.028,0.101
			c3.11,0,6.219,0,9.329,0c-0.1-0.127-0.216-0.186-0.338-0.226c-1.043-0.344-2.121-0.47-3.213-0.519
			c-0.585-0.026-0.761-0.219-0.762-0.802c-0.001-2.8-0.001-5.599-0.001-8.398c0-0.149,0.265-0.961,0.293-1.195
			C59.76,12.01,59.861,11.916,59.963,11.796z M51.733,3.581c-0.07-0.083-0.125-0.178-0.241-0.346c5.034,0,9.975,0,14.995,0
			c-0.099,0.152-0.157,0.266-0.238,0.362c-2.212,2.636-4.425,5.27-6.639,7.903c-0.438,0.52-0.779,0.526-1.212,0.011
			C56.174,8.869,53.953,6.225,51.733,3.581z"/>
		<path class="st0" d="M63.681,23.479h-9.329c-0.112,0-0.21-0.074-0.241-0.183l-0.029-0.105c-0.033-0.127,0.038-0.258,0.162-0.3
			c0.078-0.025,0.155-0.056,0.233-0.086c0.181-0.07,0.369-0.144,0.573-0.177c0.675-0.109,1.354-0.202,2.031-0.294l0.651-0.09
			c0.08-0.01,0.164,0.001,0.242-0.016c0.358-0.069,0.42-0.139,0.418-0.462c-0.013-2.092-0.012-4.183-0.01-6.274l0.001-2.2
			c-0.004-0.059-0.081-0.333-0.131-0.514c-0.058-0.21-0.114-0.412-0.143-0.555c-0.095-0.082-0.178-0.166-0.258-0.26
			c-2.258-2.678-4.51-5.364-6.761-8.049c-0.105-0.125-0.199-0.274-0.27-0.432c-0.108-0.238-0.073-0.423-0.025-0.536
			c0.07-0.167,0.214-0.293,0.416-0.365c0.234-0.084,0.493-0.094,0.667-0.094c1.849-0.004,3.7-0.005,5.549-0.003h2.997
			c1.888,0.001,3.767-0.001,5.648,0.002l0.115-0.001c0.314-0.007,0.778-0.014,0.994,0.466c0.198,0.444-0.092,0.769-0.283,0.984
			l-0.078,0.09c-2.22,2.646-4.44,5.293-6.668,7.933c-0.001,0-0.001,0-0.001,0c-0.082,0.097-0.168,0.184-0.263,0.265
			c-0.029,0.139-0.083,0.335-0.141,0.54c-0.051,0.184-0.128,0.462-0.133,0.527l0.001,8.393c0.001,0.455,0.074,0.532,0.522,0.552
			c1.338,0.062,2.35,0.226,3.28,0.532c0.124,0.04,0.306,0.116,0.456,0.309c0.06,0.075,0.07,0.178,0.028,0.264
			S63.776,23.479,63.681,23.479z M56.072,22.979h6.204c-0.629-0.129-1.327-0.207-2.158-0.245c-0.718-0.031-0.999-0.326-1-1.052
			l-0.001-8.398c0-0.101,0.044-0.269,0.151-0.655c0.059-0.211,0.132-0.475,0.144-0.57c0.002-0.017,0.006-0.033,0.011-0.049
			c-0.124,0.079-0.267,0.134-0.425,0.134c0,0,0,0,0,0c-0.156,0-0.295-0.053-0.417-0.129c0.005,0.015,0.008,0.03,0.01,0.046
			c0.011,0.1,0.086,0.368,0.146,0.583c0.106,0.382,0.149,0.547,0.149,0.648l-0.001,2.201c-0.002,2.09-0.003,4.18,0.01,6.27
			c0.004,0.699-0.391,0.872-0.819,0.956c-0.085,0.019-0.182,0.008-0.272,0.021l-0.652,0.089
			C56.79,22.878,56.431,22.927,56.072,22.979z M51.979,3.485c2.202,2.623,4.405,5.244,6.611,7.865
			c0.164,0.195,0.301,0.294,0.408,0.294l0,0c0.109,0,0.251-0.103,0.421-0.305c2.201-2.617,4.4-5.234,6.598-7.854H51.979z
			 M66.712,3.125c0.039,0.079,0.033,0.173-0.016,0.248l-0.077,0.123c0.126-0.153,0.155-0.234,0.107-0.34
			C66.722,3.144,66.717,3.134,66.712,3.125z M51.271,3.118c-0.006,0.007-0.011,0.015-0.014,0.022
			c-0.003,0.009-0.005,0.018-0.006,0.028C51.256,3.152,51.262,3.135,51.271,3.118L51.271,3.118z M66.162,2.985h0.211
			c-0.05-0.002-0.106-0.002-0.175,0L66.162,2.985z M53.104,2.985h12.025c-1.567-0.001-3.133-0.001-4.703-0.001h-2.997
			C55.988,2.983,54.546,2.984,53.104,2.985z"/>
	</g>
	<path class="st0" d="M63.987,2.271c0.755-1.04,0.551-0.777,1.283-1.834c0.102-0.147,0.198-0.34-0.033-0.428
		c-0.097-0.037-0.311,0.048-0.379,0.149c-0.313,0.461-0.403,0.635-0.644,0.994c-0.109,0.163-0.26,0.388-0.811,1.207
		c0.023,0.045,0.221,0.019,0.244,0.063C63.822,2.351,63.893,2.401,63.987,2.271z"/>
	<path class="st0" d="M63.903,5.403c-0.718,0-1.148-0.011-1.752,0.01c-0.121,0.004-0.27,0.106-0.351,0.206
		c-0.222,0.275-0.414,0.573-0.636,0.887c-0.157-0.128-0.269-0.219-0.41-0.334c0.183-0.296,0.341-0.552,0.528-0.856
		c-2.111-0.259-4.142-0.73-6.299-0.477c0.595,0.993,1.16,1.936,1.725,2.878c-0.026,0.017-0.051,0.033-0.077,0.05
		c-0.097-0.11-0.198-0.216-0.29-0.329c-0.586-0.721-1.189-1.429-1.748-2.17c-0.267-0.354-0.389-0.442-0.779-0.225
		C55.585,7.15,57.204,9.06,59,11.196C60.706,9.166,62.185,7.448,63.903,5.403z M60.029,6.326c0.609,0.011,1.13,0.54,1.133,1.151
		c0.003,0.635-0.564,1.195-1.192,1.178c-0.637-0.017-1.146-0.545-1.14-1.181C58.836,6.811,59.355,6.314,60.029,6.326z M58.544,9.756
		c0.164-0.316,0.315-0.64,0.503-0.941c0.035-0.056,0.217-0.02,0.331-0.026c0.013,0.043,0.026,0.086,0.039,0.129
		c-0.254,0.302-0.509,0.604-0.763,0.906C58.617,9.802,58.581,9.779,58.544,9.756z"/>
	<path class="st0" d="M61.976,5.224c0.284-0.348,0.784-1.155,1.04-1.526c-0.017-0.031-0.035-0.062-0.052-0.093
		c-0.148,0.032-0.36,0.013-0.434,0.105c-0.295,0.365-0.807,1.188-1.074,1.575c0.026,0.033,0.052,0.066,0.078,0.1
		C61.685,5.335,61.891,5.329,61.976,5.224z"/>
</g>
</svg>
