<?xml version="1.0" encoding="utf-8"?>
<!-- Generator: Adobe Illustrator 23.1.1, SVG Export Plug-In . SVG Version: 6.00 Build 0)  -->
<svg version="1.1" id="Layer_1" xmlns="http://www.w3.org/2000/svg" xmlns:xlink="http://www.w3.org/1999/xlink" x="0px" y="0px"
	 viewBox="0 0 118 25.815" enable-background="new 0 0 118 25.815" xml:space="preserve">
<g id="Group_321" transform="translate(-581 -385.008)">
	<rect id="Rectangle_422" x="655" y="396.907" fill="#DEE2E6" width="44" height="2"/>
	<path id="Path_624" fill="#DEE2E6" d="M630.309,395.79c-0.027,0.2-0.041,0.411-0.06,0.617l0.031,1.771
		c0.046,0.3,0.09,0.594,0.137,0.891c0.327,2.322,1.314,4.501,2.844,6.279c0.988,1.158,2.243,2.059,3.657,2.625
		c1.219,0.501,2.542,0.699,3.854,0.579c2.434-0.228,4.67-1.439,6.189-3.355c1.313-1.587,2.193-3.488,2.553-5.516
		c0.239-1.259,0.3-2.546,0.18-3.822c-0.151-1.85-0.513-3.676-1.08-5.443c-0.192-0.598-0.449-1.173-0.766-1.716
		c-0.429-0.75-1.384-1.011-2.135-0.584c-0.741,0.39-1.053,1.288-0.713,2.054c0.357,0.931,0.607,1.899,0.744,2.887
		c0.202,1.177,0.313,2.367,0.331,3.561c0.037,1.731-0.402,3.44-1.269,4.939c-0.63,1.175-1.623,2.115-2.83,2.681
		c-1.285,0.601-2.776,0.567-4.032-0.093c-1.31-0.692-2.357-1.794-2.981-3.137c-0.733-1.448-1.092-3.056-1.044-4.678
		c-0.005-1.676,0.18-3.348,0.55-4.983c0.1-0.414,0.264-0.813,0.375-1.226c0.234-0.846-0.263-1.722-1.109-1.956
		c-0.004-0.001-0.007-0.002-0.011-0.003c-0.054-0.019-0.107-0.042-0.158-0.069l-0.6,0.011c-0.008,0.011-0.013,0.028-0.021,0.03
		c-0.566,0.152-1.023,0.569-1.227,1.119c-0.441,0.961-0.751,1.978-0.921,3.022C630.593,393.439,630.465,394.617,630.309,395.79z
		 M648.216,396.64l-0.617,0.011c0-0.079,0-0.145,0-0.211c-0.067-0.733-0.12-1.468-0.21-2.2c-0.073-0.587-0.095-0.584,0.42-0.869
		c0.021-0.008,0.044-0.013,0.066-0.017C648.073,394.439,648.186,395.538,648.216,396.64z M647.563,400.893l-0.517-0.284
		c0.194-0.945,0.381-1.851,0.57-2.766l0.578-0.011c-0.075,1.044-0.289,2.073-0.636,3.061H647.563z M644.797,404.206
		c0.724-0.741,1.317-1.6,1.754-2.54l0.565,0.32c-0.483,1.045-1.151,1.994-1.973,2.8L644.797,404.206z M633.076,402.232l0.556-0.333
		c0.469,0.923,1.092,1.76,1.842,2.474l-0.331,0.589C634.294,404.184,633.594,403.259,633.076,402.232L633.076,402.232z
		 M631.855,398.117l0.576-0.01c0.224,0.927,0.442,1.831,0.665,2.753l-0.507,0.3c-0.378-0.978-0.624-2.001-0.731-3.044
		L631.855,398.117z M632.028,393.623c0.145,0.079,0.27,0.158,0.4,0.217s0.159,0.14,0.145,0.282c-0.051,0.5-0.09,1-0.123,1.5
		c-0.028,0.432-0.041,0.865-0.061,1.3l-0.586,0.011C631.774,395.825,631.849,394.717,632.028,393.623L632.028,393.623z"/>
	<rect id="Rectangle_425" x="581" y="396.907" fill="#DEE2E6" width="44" height="2"/>
</g>
</svg>
