<?xml version="1.0" encoding="utf-8"?>
<!-- Generator: Adobe Illustrator 23.1.1, SVG Export Plug-In . SVG Version: 6.00 Build 0)  -->
<svg version="1.1" id="Layer_1" xmlns="http://www.w3.org/2000/svg" xmlns:xlink="http://www.w3.org/1999/xlink" x="0px" y="0px"
	 viewBox="0 0 118 25.815" style="enable-background:new 0 0 118 25.815;" xml:space="preserve">
<style type="text/css">
	.st0{fill:#DEE2E6;}
</style>
<g id="Group_334" transform="translate(-581 -383.036)">
	<rect id="Rectangle_422" x="655" y="394.398" class="st0" width="44" height="2"/>
	<rect id="Rectangle_425" x="581" y="394.398" class="st0" width="44" height="2"/>
	<path id="Path_663" class="st0" d="M646.546,391.609c0.041-2.12-0.257-4.25-0.357-6.38c0.023-0.625-0.433-1.166-1.053-1.249
		c-1.618-0.323-3.26-0.506-4.909-0.549c-0.831,0.041-1.672,0.03-2.5,0.136c-0.926,0.126-1.843,0.337-2.759,0.549
		c-0.398,0.078-0.681,0.435-0.665,0.841c-0.106,1.647-0.292,3.293-0.367,4.94c-0.078,1.113-0.048,2.231,0.091,3.338
		c0.382,2.573,0.946,5.121,1.329,7.7c0.313,1.935,0.27,3.911-0.126,5.831c-0.117,0.388,0.042,0.805,0.387,1.017
		c0.28,0.188,0.578,0.345,0.891,0.469c1.878,0.627,3.885,0.764,5.831,0.4c0.829-0.173,1.635-0.445,2.4-0.81
		c0.413-0.176,0.628-0.633,0.5-1.063c-0.152-0.908-0.253-1.824-0.3-2.744c0.01-2.521,0.308-5.034,0.886-7.488
		C646.212,394.925,646.453,393.273,646.546,391.609z M634.646,385.551c-0.085-0.131,0-0.856,0.262-0.987
		c1.715-0.555,3.516-0.803,5.317-0.73c1.758-0.005,3.509,0.223,5.207,0.679c0.382,0.121,0.478,0.906,0.342,1.037
		c-0.298,0.295-11.048,0.129-11.128,0.003L634.646,385.551z"/>
</g>
</svg>
