<?xml version="1.0" standalone="no"?>
<!DOCTYPE svg PUBLIC "-//W3C//DTD SVG 20010904//EN"
 "http://www.w3.org/TR/2001/REC-SVG-20010904/DTD/svg10.dtd">
<svg version="1.0" xmlns="http://www.w3.org/2000/svg"
 width="260.000000pt" height="260.000000pt" viewBox="0 0 260.000000 260.000000"
 preserveAspectRatio="xMidYMid meet">
<metadata>
Created by potrace 1.11, written by Peter Selinger 2001-2013
</metadata>
<g transform="translate(0.000000,260.000000) scale(0.100000,-0.100000)"
fill="#000000" stroke="none">
<path d="M1100 2389 c-36 -4 -78 -10 -95 -13 -142 -27 -185 -39 -200 -56 -16
-18 -17 -24 -42 -325 -4 -49 -8 -166 -7 -260 0 -160 9 -242 49 -435 3 -14 8
-38 10 -55 13 -73 25 -142 30 -165 3 -14 7 -38 10 -55 3 -16 7 -41 10 -55 2
-14 7 -45 10 -70 3 -25 8 -58 11 -73 16 -78 4 -315 -22 -451 -9 -47 72 -113
162 -131 147 -29 189 -34 304 -30 132 3 132 3 225 30 92 27 162 61 175 85 7
12 9 36 6 54 -16 90 -21 164 -21 286 1 210 16 333 75 610 48 228 55 286 55
485 0 88 -4 192 -7 230 -4 39 -10 108 -13 155 -14 196 -10 191 -205 220 -36 6
-78 13 -95 15 -52 10 -357 13 -425 4z m384 -33 c23 -3 61 -8 86 -11 25 -4 79
-14 120 -24 64 -15 77 -22 89 -46 20 -41 4 -59 -57 -65 -87 -9 -872 -3 -899 7
-12 5 -7 62 7 77 14 14 190 55 265 62 39 3 71 7 73 9 5 4 275 -3 316 -9z"/>
</g>
</svg>
